<?xml version="1.0" encoding="utf-8"?>
<!-- Generator: Adobe Illustrator 22.0.1, SVG Export Plug-In . SVG Version: 6.00 Build 0)  -->
<svg version="1.1" id="Слой_1" xmlns="http://www.w3.org/2000/svg" xmlns:xlink="http://www.w3.org/1999/xlink" x="0px" y="0px"
	 viewBox="0 0 162.5 17.5" style="enable-background:new 0 0 162.5 17.5;" xml:space="preserve">
<style type="text/css">
	.st0{fill:#C1B7A4;}
</style>
<path class="st0" d="M159.8,16c-0.4,0.4-0.9,0.7-1.6,0.7c-0.7,0-1.3-0.1-1.7-0.3c-0.3-0.1-0.7-0.4-1-0.8c-0.2-0.2-0.4-0.7-0.6-1.2
	c-0.2-0.6-0.3-1.2-0.3-1.7c0-0.8,0.2-1.4,0.6-1.9c0.4-0.5,0.7-0.9,1-1.1c0.1,0,0.2,0,0.3,0c1.5,0.5,2.6,1.1,3.2,1.7
	c0.6,0.6,0.9,1.3,0.9,2.3C160.5,14.6,160.3,15.4,159.8,16 M159.4,7.3c-0.3,0.3-0.6,0.6-0.9,0.7c-0.3,0.1-0.5,0.2-0.7,0.1
	c-2-0.4-3.1-1.5-3.1-3.1c0-0.8,0.2-1.4,0.5-1.9c0.2-0.3,0.5-0.5,0.7-0.6c0.1-0.1,0.4-0.1,0.8-0.1c1.2,0,2,0.3,2.6,0.9
	c0.5,0.6,0.8,1.2,0.8,2C160.1,6,159.9,6.7,159.4,7.3 M160.6,9.8c-0.5-0.5-1-0.9-1.7-1.1c-0.2-0.1-0.2-0.2,0-0.3
	c0.8-0.4,1.3-0.8,1.6-1.2c0.6-0.7,0.9-1.6,0.9-2.5c0-0.3-0.1-0.7-0.2-1.1c-0.2-0.5-0.4-0.9-0.7-1.2c-0.7-0.7-1.6-1.1-2.7-1.1
	c-1.2,0-2.2,0.4-2.9,1.1c-0.9,1-1.4,2.1-1.4,3.5c0,1.4,0.7,2.5,2,3.2c0.1,0.1,0.1,0.1,0.1,0.2c-0.7,0.5-1.2,1-1.4,1.3
	c-0.6,0.8-0.8,1.7-0.8,2.6c0,1.2,0.3,2.2,0.9,2.9c0.7,0.8,1.7,1.3,2.9,1.3c1.4,0,2.5-0.4,3.2-1.2c0.9-1,1.4-2.2,1.4-3.6
	C161.8,11.5,161.4,10.6,160.6,9.8 M143.1,16c-0.4,0.4-0.9,0.7-1.6,0.7c-0.7,0-1.3-0.1-1.7-0.3c-0.3-0.1-0.7-0.4-1-0.8
	c-0.2-0.2-0.4-0.7-0.6-1.2c-0.2-0.6-0.3-1.2-0.3-1.7c0-0.8,0.2-1.4,0.6-1.9c0.4-0.5,0.7-0.9,1-1.1c0.1,0,0.2,0,0.3,0
	c1.5,0.5,2.6,1.1,3.2,1.7c0.6,0.6,0.9,1.3,0.9,2.3C143.9,14.6,143.6,15.4,143.1,16 M142.8,7.3c-0.3,0.3-0.6,0.6-0.9,0.7
	c-0.3,0.1-0.5,0.2-0.7,0.1c-2-0.4-3.1-1.5-3.1-3.1c0-0.8,0.2-1.4,0.5-1.9c0.2-0.3,0.5-0.5,0.7-0.6c0.1-0.1,0.4-0.1,0.8-0.1
	c1.2,0,2,0.3,2.6,0.9c0.5,0.6,0.8,1.2,0.8,2C143.5,6,143.2,6.7,142.8,7.3 M144,9.8c-0.5-0.5-1-0.9-1.7-1.1c-0.2-0.1-0.2-0.2,0-0.3
	c0.8-0.4,1.3-0.8,1.6-1.2c0.6-0.7,0.9-1.6,0.9-2.5c0-0.3-0.1-0.7-0.2-1.1c-0.2-0.5-0.4-0.9-0.7-1.2c-0.7-0.7-1.6-1.1-2.7-1.1
	c-1.2,0-2.2,0.4-2.9,1.1c-0.9,1-1.4,2.1-1.4,3.5c0,1.4,0.7,2.5,2,3.2c0.1,0.1,0.1,0.1,0.1,0.2c-0.7,0.5-1.2,1-1.4,1.3
	c-0.6,0.8-0.8,1.7-0.8,2.6c0,1.2,0.3,2.2,0.9,2.9c0.7,0.8,1.7,1.3,2.9,1.3c1.4,0,2.5-0.4,3.2-1.2c0.9-1,1.4-2.2,1.4-3.6
	C145.1,11.5,144.7,10.6,144,9.8 M118.5,1.3c0,0-0.1,0-0.2,0c-0.2,0-0.4,0-0.6,0.1c-0.4,0-2.2,0-5.3,0c-1,0-2.2,0-3.8-0.1
	c-1.3-0.1-2.1-0.1-2.2-0.1c-0.1,0-0.2,0-0.2,0.1c-0.1,0.4-0.3,1-0.5,1.8c-0.1,0.1-0.1,0.2-0.1,0.3c0,0.1,0,0.1,0.1,0.1
	c0.1,0,0.1-0.1,0.2-0.2c0.2-0.3,0.5-0.5,1.1-0.6c0.8-0.2,2.1-0.3,4-0.3c0.3,0,0.4,1.2,0.4,3.5c0,0.1,0,1.4-0.1,3.9
	c0,2.5-0.1,3.8-0.1,4c0,0.2,0,1.1,0,2.7c0,0.2-0.1,0.3-0.2,0.3h-1.8c-0.1,0-0.1,0-0.1,0.1v0.4c0,0.1,0,0.1,0.1,0.1h6
	c0.1,0,0.1,0,0.1-0.1v-0.4c0-0.1,0-0.1-0.1-0.1h-1.9c-0.4,0-0.5-1.1-0.5-3.3c0-0.2,0-2.1,0.1-5.4c0-3.5,0.1-5.4,0.1-5.5
	c0-0.1,0.1-0.2,0.2-0.2c1.9,0,3.2,0.1,3.9,0.3c0.4,0.1,0.7,0.3,0.9,0.7c0.1,0.1,0.1,0.2,0.2,0.2c0.1,0,0.1-0.1,0.1-0.2
	c0.2-0.6,0.3-1.2,0.3-1.7C118.6,1.3,118.6,1.3,118.5,1.3 M98.9,15.4c-0.1,0-0.2,0.1-0.5,0.3c-1.1,0.6-3.4,0.8-6.8,0.8
	c-0.4,0-0.6-0.9-0.6-2.8V9.3c0-0.1,0-0.2,0.1-0.2c0,0,0.9,0,2.6,0c1.7,0,2.6,0,2.7,0c0.1,0,0.2,0.1,0.2,0.2c0,0.7,0.1,1.3,0.1,1.8
	c0,0.1,0.1,0.2,0.1,0.2h0.2c0.1,0,0.1-0.1,0.1-0.3c0,0,0-0.4,0-1.1c0-0.7,0-1.1,0-1.2c0-0.1,0-0.5,0-1.1c0-0.6,0-0.9,0-1
	c0-0.1,0-0.2-0.1-0.2H97c-0.1,0-0.1,0.1-0.1,0.2c0,0,0,0.3-0.1,0.6c0,0.4-0.1,0.6-0.1,0.7c0,0.1-0.1,0.2-0.2,0.2h-5.3
	C91.1,8.2,91,8.2,91,8c0-3.8,0-5.7,0-5.8c0-0.1,0.1-0.1,0.2-0.1c2.6,0,4.4,0.1,5.2,0.3c0.6,0.1,1,0.3,1.3,0.6l0.2,0.2
	C97.9,3.1,98,3,98,2.8c0.2-0.6,0.3-1.1,0.4-1.5c0-0.1,0-0.1-0.1-0.1c0,0-0.1,0-0.3,0c-0.2,0-0.4,0-0.5,0h-9.8c-0.1,0-0.1,0-0.1,0.1
	v0.4c0,0.1,0,0.1,0.1,0.1H89c0.3,0,0.4,0.8,0.4,2.4c0,0.1,0,0.9,0,2.4c0,1.5,0,2.3,0,2.4c0,0.1,0,1.3,0,3.6c0,2.3,0,3.5,0,3.6
	c0,0.2-0.1,0.2-0.2,0.2h-1.6c-0.1,0-0.1,0-0.1,0.1v0.4c0,0.1,0,0.1,0.1,0.1H98c0.1,0,0.2,0,0.2-0.1c0.3-0.6,0.5-1.1,0.7-1.5
	C99,15.4,99,15.4,98.9,15.4 M80.2,10c0-0.1-0.1-0.2-0.2-0.2h-6c-0.1,0-0.2,0.1-0.2,0.2v0.2c0,0.1,0,0.2,0.1,0.2h2.3
	c0.1,0,0.2,0.5,0.2,1.4c0,0.3,0,0.8,0,1.6v2.1c0,0.1,0,0.1-0.1,0.2c-0.8,0.6-1.7,0.9-2.6,0.9c-1,0-1.8-0.1-2.4-0.3
	c-0.9-0.3-1.7-0.8-2.4-1.5c-1.2-1.3-1.9-3.1-1.9-5.4c0-2.1,0.6-3.8,1.7-5.1c0.7-0.8,1.5-1.4,2.3-1.7c0.6-0.2,1.4-0.4,2.4-0.4
	c1.7,0,3,0.3,3.8,0.9c0.3,0.2,0.5,0.5,0.6,0.8c0,0.2,0.1,0.4,0.1,0.6c0,0.1,0.1,0.1,0.2,0.1c0.1,0,0.1,0,0.1-0.1
	c0-0.1,0.1-0.6,0.2-1.4c0-0.1,0-0.3,0.1-0.6c0-0.3,0.1-0.5,0.1-0.5c0-0.1,0-0.1-0.1-0.2c-0.8-0.3-1.9-0.4-3.5-0.4
	c-1.5,0-2.8,0.2-3.8,0.5c-1.8,0.6-3.1,1.5-4,2.6c-1.2,1.6-1.8,3.4-1.8,5.5c0,2,0.4,3.7,1.1,4.8c0.7,1,1.6,1.8,2.8,2.3
	c0.6,0.3,1.8,0.4,3.3,0.4c1.4,0,2.7-0.3,4-0.9c0.8-0.4,1.4-0.6,1.6-0.6c0.1,0,0.1-0.1,0.1-0.2c-0.1-0.8-0.1-1.7-0.1-2.7
	c0-0.5,0-1.1,0-1.6c0-0.6,0-0.8,0-0.7c0-0.1,0-0.1,0.1-0.1h1.6c0.1,0,0.1-0.1,0.1-0.2V10z M54.9,15.3c-0.8,0.9-2,1.3-3.5,1.3
	c-1.4,0-2.4-0.1-2.9-0.2c-0.2,0-0.3-1.1-0.3-3.1V8.5c0-0.2,0-1.3,0-3.1c0-1.8,0-2.8,0-2.9c0-0.3,0.1-0.4,0.2-0.5
	c0.2,0,0.4-0.1,0.9-0.1c1,0,1.9,0.2,2.9,0.6c1,0.4,1.8,1.2,2.6,2.2c1.1,1.5,1.7,3.5,1.7,5.8C56.5,12.7,55.9,14.2,54.9,15.3
	 M56.1,3.4c-0.4-0.5-0.9-0.8-1.3-1.1c-0.2-0.1-0.5-0.3-1-0.5c-0.7-0.3-1.5-0.5-2.7-0.5h-6.7c-0.1,0-0.1,0-0.1,0.1v0.4
	c0,0.1,0,0.1,0.1,0.1h1.5c0.2,0,0.4,0.8,0.4,2.4c0,0.2,0,1.1,0,2.8l0,2.9c0,0.2,0,1.2,0,3.2c0,1.9,0,3,0,3.1c0,0.2-0.1,0.4-0.2,0.4
	h-1.5c-0.1,0-0.1,0-0.1,0.1c0,0.1,0,0.1,0,0.2c0,0.1,0,0.1,0,0.2c0,0.1,0,0.1,0.1,0.1h1.2c0.5,0,1.2,0,2.1,0.1c0.8,0,1.5,0.1,2,0.1
	c1.1,0,1.9,0,2.5-0.1c0.9-0.2,1.8-0.5,2.5-1c2-1.4,3-3.8,3-7C58,6.6,57.4,4.7,56.1,3.4 M32.2,10.6h-4.6c-0.1,0-0.1,0-0.1-0.1
	c0,0,0.2-0.5,0.6-1.5c0.4-1,1-2.7,2-5.1c0-0.1,0.1-0.2,0.1-0.2c0,0,0.1,0.1,0.1,0.2c0.4,1.2,0.7,2.4,1.1,3.5c0.3,1.1,0.7,2.1,1,3.1
	C32.3,10.5,32.3,10.6,32.2,10.6 M37.7,16.8c0-0.1,0-0.2-0.1-0.2h-1c-0.2,0-0.4-0.4-0.8-1.3c-0.4-0.9-1.1-3-2.1-6.2
	c-1-3.2-1.7-5.4-2.1-6.6c-0.1-0.4-0.2-0.6-0.2-0.9c0-0.2,0.1-0.5,0.3-0.7c0.1-0.1,0.2-0.3,0.1-0.4c-0.1-0.1-0.1-0.1-0.2-0.1
	c-0.3,0.1-0.6,0.2-0.8,0.3c-0.1,0-0.2,0.2-0.2,0.4c-1.2,3.1-2.3,5.8-3.2,8c-1.4,3.5-2.2,5.6-2.4,6.4c-0.3,0.7-0.5,1.1-0.6,1.1h-0.9
	c-0.1,0-0.1,0-0.1,0.1v0.4c0,0.1,0,0.1,0.1,0.1h4.4c0.1,0,0.1,0,0.1-0.1v-0.3c0-0.1,0-0.2-0.1-0.2h-1.7c-0.1,0-0.2-0.3-0.2-0.8
	c0-0.1,0.1-0.5,0.2-1.1c0.1-0.3,0.2-0.8,0.5-1.6c0.2-0.8,0.4-1.3,0.5-1.5c0-0.1,0.1-0.1,0.2-0.1h5.3c0.1,0,0.2,0.1,0.2,0.2
	c0,0.1,0.3,0.8,0.7,2.2c0.4,1.4,0.7,2.2,0.8,2.4c0,0.1,0,0.2-0.1,0.2h-1.5c-0.1,0-0.1,0.1-0.1,0.2v0.3c0,0.1,0,0.1,0.1,0.1h5
	c0,0,0.1,0,0.1-0.1V16.8z M16.7,10c0-0.1-0.1-0.2-0.2-0.2h-6c-0.1,0-0.2,0.1-0.2,0.2v0.2c0,0.1,0,0.2,0.1,0.2h2.3
	c0.1,0,0.2,0.5,0.2,1.4c0,0.3,0,0.8,0,1.6v2.1c0,0.1,0,0.1-0.1,0.2c-0.8,0.6-1.7,0.9-2.6,0.9c-1,0-1.8-0.1-2.4-0.3
	c-0.9-0.3-1.7-0.8-2.4-1.5c-1.2-1.3-1.9-3.1-1.9-5.4c0-2.1,0.6-3.8,1.7-5.1c0.7-0.8,1.5-1.4,2.3-1.7c0.6-0.2,1.4-0.4,2.4-0.4
	c1.7,0,3,0.3,3.8,0.9c0.3,0.2,0.5,0.5,0.6,0.8c0,0.2,0.1,0.4,0.1,0.6c0,0.1,0.1,0.1,0.2,0.1c0.1,0,0.1,0,0.1-0.1
	c0-0.1,0.1-0.6,0.2-1.4c0-0.1,0-0.3,0.1-0.6c0-0.3,0.1-0.5,0.1-0.5c0-0.1,0-0.1-0.1-0.2c-0.8-0.3-1.9-0.4-3.5-0.4
	c-1.5,0-2.8,0.2-3.8,0.5c-1.8,0.6-3.1,1.5-4,2.6C2.5,6,1.9,7.8,1.9,9.9c0,2,0.4,3.7,1.1,4.8c0.7,1,1.6,1.8,2.8,2.3
	c0.6,0.3,1.8,0.4,3.3,0.4c1.4,0,2.7-0.3,4-0.9c0.8-0.4,1.4-0.6,1.6-0.6c0.1,0,0.1-0.1,0.1-0.2c-0.1-0.8-0.1-1.7-0.1-2.7
	c0-0.5,0-1.1,0-1.6c0-0.6,0-0.8,0-0.7c0-0.1,0-0.1,0.1-0.1h1.6c0.1,0,0.1-0.1,0.1-0.2V10z"/>
</svg>
